<?xml version="1.0" encoding="UTF-8" standalone="no"?><!DOCTYPE svg PUBLIC "-//W3C//DTD SVG 1.1//EN" "http://www.w3.org/Graphics/SVG/1.1/DTD/svg11.dtd"><!-- Generated by graphviz version 2.40.1 (20161225.0304)
 --><!-- Title: G Pages: 1 --><svg xmlns="http://www.w3.org/2000/svg" xmlns:xlink="http://www.w3.org/1999/xlink" width="687pt" height="620pt" viewBox="0.00 0.00 686.56 620.00">
<g id="graph0" class="graph" transform="scale(1 1) rotate(0) translate(4 616)">
<title>G</title>
<polygon fill="#ffffff" stroke="transparent" points="-4,4 -4,-616 682.5632,-616 682.5632,4 -4,4"/>
<!-- m = inf -->
<g id="node1" class="node">
<title>m = inf</title>
<ellipse fill="none" stroke="#000000" cx="39.5496" cy="-594" rx="39.5993" ry="18"/>
<text text-anchor="middle" x="39.5496" y="-589.8" font-family="Times,serif" font-size="14.00" fill="#000000">m = inf</text>
</g>
<!-- m = min(m, z0) -->
<g id="node2" class="node">
<title>m = min(m, z0)</title>
<polygon fill="#f2f2f2" stroke="#000000" points="150.5424,-540 46.5568,-540 46.5568,-504 150.5424,-504 150.5424,-540"/>
<text text-anchor="middle" x="98.5496" y="-517.8" font-family="Times,serif" font-size="14.00" fill="#000000">m = min(m, z0)</text>
</g>
<!-- m = inf&#45;&gt;m = min(m, z0) -->
<g id="edge1" class="edge">
<title>m = inf-&gt;m = min(m, z0)</title>
<path fill="none" stroke="#000000" d="M53.5318,-576.937C60.6133,-568.2952 69.3626,-557.6181 77.2591,-547.9816"/>
<polygon fill="#000000" stroke="#000000" points="80.0053,-550.1524 83.6364,-540.1992 74.591,-545.7156 80.0053,-550.1524"/>
</g>
<!-- m = min(m, z1) -->
<g id="node5" class="node">
<title>m = min(m, z1)</title>
<polygon fill="#f2f2f2" stroke="#000000" points="215.5424,-468 111.5568,-468 111.5568,-432 215.5424,-432 215.5424,-468"/>
<text text-anchor="middle" x="163.5496" y="-445.8" font-family="Times,serif" font-size="14.00" fill="#000000">m = min(m, z1)</text>
</g>
<!-- m = min(m, z0)&#45;&gt;m = min(m, z1) -->
<g id="edge10" class="edge">
<title>m = min(m, z0)-&gt;m = min(m, z1)</title>
<path fill="none" stroke="#000000" d="M114.9518,-503.8314C122.5911,-495.3694 131.818,-485.1489 140.1703,-475.8971"/>
<polygon fill="#000000" stroke="#000000" points="142.8234,-478.1813 146.9265,-468.4133 137.6275,-473.4906 142.8234,-478.1813"/>
</g>
<!-- z0 = x0 + y0 -->
<g id="node3" class="node">
<title>z0 = x0 + y0</title>
<ellipse fill="none" stroke="#000000" cx="157.5496" cy="-594" rx="60.0273" ry="18"/>
<text text-anchor="middle" x="157.5496" y="-589.8" font-family="Times,serif" font-size="14.00" fill="#000000">z0 = x0 + y0</text>
</g>
<!-- z0 = x0 + y0&#45;&gt;m = min(m, z0) -->
<g id="edge2" class="edge">
<title>z0 = x0 + y0-&gt;m = min(m, z0)</title>
<path fill="none" stroke="#000000" d="M142.9653,-576.2022C135.9976,-567.6992 127.5233,-557.3577 119.8523,-547.9965"/>
<polygon fill="#000000" stroke="#000000" points="122.4214,-545.6095 113.3759,-540.0931 117.007,-550.0463 122.4214,-545.6095"/>
</g>
<!-- z1 = x1 + y1 -->
<g id="node4" class="node">
<title>z1 = x1 + y1</title>
<ellipse fill="none" stroke="#000000" cx="228.5496" cy="-522" rx="60.0273" ry="18"/>
<text text-anchor="middle" x="228.5496" y="-517.8" font-family="Times,serif" font-size="14.00" fill="#000000">z1 = x1 + y1</text>
</g>
<!-- z1 = x1 + y1&#45;&gt;m = min(m, z1) -->
<g id="edge3" class="edge">
<title>z1 = x1 + y1-&gt;m = min(m, z1)</title>
<path fill="none" stroke="#000000" d="M212.8149,-504.5708C204.9289,-495.8355 195.2293,-485.0914 186.5284,-475.4534"/>
<polygon fill="#000000" stroke="#000000" points="189.1172,-473.0979 179.8182,-468.0206 183.9213,-477.7887 189.1172,-473.0979"/>
</g>
<!-- m = min(m, z2) -->
<g id="node7" class="node">
<title>m = min(m, z2)</title>
<polygon fill="#f2f2f2" stroke="#000000" points="280.5424,-396 176.5568,-396 176.5568,-360 280.5424,-360 280.5424,-396"/>
<text text-anchor="middle" x="228.5496" y="-373.8" font-family="Times,serif" font-size="14.00" fill="#000000">m = min(m, z2)</text>
</g>
<!-- m = min(m, z1)&#45;&gt;m = min(m, z2) -->
<g id="edge11" class="edge">
<title>m = min(m, z1)-&gt;m = min(m, z2)</title>
<path fill="none" stroke="#000000" d="M179.9518,-431.8314C187.5911,-423.3694 196.818,-413.1489 205.1703,-403.8971"/>
<polygon fill="#000000" stroke="#000000" points="207.8234,-406.1813 211.9265,-396.4133 202.6275,-401.4906 207.8234,-406.1813"/>
</g>
<!-- z2 = x2 + y2 -->
<g id="node6" class="node">
<title>z2 = x2 + y2</title>
<ellipse fill="none" stroke="#000000" cx="293.5496" cy="-450" rx="60.0273" ry="18"/>
<text text-anchor="middle" x="293.5496" y="-445.8" font-family="Times,serif" font-size="14.00" fill="#000000">z2 = x2 + y2</text>
</g>
<!-- z2 = x2 + y2&#45;&gt;m = min(m, z2) -->
<g id="edge4" class="edge">
<title>z2 = x2 + y2-&gt;m = min(m, z2)</title>
<path fill="none" stroke="#000000" d="M277.8149,-432.5708C269.9289,-423.8355 260.2293,-413.0914 251.5284,-403.4534"/>
<polygon fill="#000000" stroke="#000000" points="254.1172,-401.0979 244.8182,-396.0206 248.9213,-405.7887 254.1172,-401.0979"/>
</g>
<!-- m = min(m, z3) -->
<g id="node9" class="node">
<title>m = min(m, z3)</title>
<polygon fill="#f2f2f2" stroke="#000000" points="345.5424,-324 241.5568,-324 241.5568,-288 345.5424,-288 345.5424,-324"/>
<text text-anchor="middle" x="293.5496" y="-301.8" font-family="Times,serif" font-size="14.00" fill="#000000">m = min(m, z3)</text>
</g>
<!-- m = min(m, z2)&#45;&gt;m = min(m, z3) -->
<g id="edge12" class="edge">
<title>m = min(m, z2)-&gt;m = min(m, z3)</title>
<path fill="none" stroke="#000000" d="M244.9518,-359.8314C252.5911,-351.3694 261.818,-341.1489 270.1703,-331.8971"/>
<polygon fill="#000000" stroke="#000000" points="272.8234,-334.1813 276.9265,-324.4133 267.6275,-329.4906 272.8234,-334.1813"/>
</g>
<!-- z3 = x3 + y3 -->
<g id="node8" class="node">
<title>z3 = x3 + y3</title>
<ellipse fill="none" stroke="#000000" cx="358.5496" cy="-378" rx="60.0273" ry="18"/>
<text text-anchor="middle" x="358.5496" y="-373.8" font-family="Times,serif" font-size="14.00" fill="#000000">z3 = x3 + y3</text>
</g>
<!-- z3 = x3 + y3&#45;&gt;m = min(m, z3) -->
<g id="edge5" class="edge">
<title>z3 = x3 + y3-&gt;m = min(m, z3)</title>
<path fill="none" stroke="#000000" d="M342.8149,-360.5708C334.9289,-351.8355 325.2293,-341.0914 316.5284,-331.4534"/>
<polygon fill="#000000" stroke="#000000" points="319.1172,-329.0979 309.8182,-324.0206 313.9213,-333.7887 319.1172,-329.0979"/>
</g>
<!-- m = min(m, z4) -->
<g id="node11" class="node">
<title>m = min(m, z4)</title>
<polygon fill="#f2f2f2" stroke="#000000" points="410.5424,-252 306.5568,-252 306.5568,-216 410.5424,-216 410.5424,-252"/>
<text text-anchor="middle" x="358.5496" y="-229.8" font-family="Times,serif" font-size="14.00" fill="#000000">m = min(m, z4)</text>
</g>
<!-- m = min(m, z3)&#45;&gt;m = min(m, z4) -->
<g id="edge13" class="edge">
<title>m = min(m, z3)-&gt;m = min(m, z4)</title>
<path fill="none" stroke="#000000" d="M309.9518,-287.8314C317.5911,-279.3694 326.818,-269.1489 335.1703,-259.8971"/>
<polygon fill="#000000" stroke="#000000" points="337.8234,-262.1813 341.9265,-252.4133 332.6275,-257.4906 337.8234,-262.1813"/>
</g>
<!-- z4 = x4 + y4 -->
<g id="node10" class="node">
<title>z4 = x4 + y4</title>
<ellipse fill="none" stroke="#000000" cx="423.5496" cy="-306" rx="60.0273" ry="18"/>
<text text-anchor="middle" x="423.5496" y="-301.8" font-family="Times,serif" font-size="14.00" fill="#000000">z4 = x4 + y4</text>
</g>
<!-- z4 = x4 + y4&#45;&gt;m = min(m, z4) -->
<g id="edge6" class="edge">
<title>z4 = x4 + y4-&gt;m = min(m, z4)</title>
<path fill="none" stroke="#000000" d="M407.8149,-288.5708C399.9289,-279.8355 390.2293,-269.0914 381.5284,-259.4534"/>
<polygon fill="#000000" stroke="#000000" points="384.1172,-257.0979 374.8182,-252.0206 378.9213,-261.7887 384.1172,-257.0979"/>
</g>
<!-- m = min(m, z5) -->
<g id="node13" class="node">
<title>m = min(m, z5)</title>
<polygon fill="#f2f2f2" stroke="#000000" points="475.5424,-180 371.5568,-180 371.5568,-144 475.5424,-144 475.5424,-180"/>
<text text-anchor="middle" x="423.5496" y="-157.8" font-family="Times,serif" font-size="14.00" fill="#000000">m = min(m, z5)</text>
</g>
<!-- m = min(m, z4)&#45;&gt;m = min(m, z5) -->
<g id="edge14" class="edge">
<title>m = min(m, z4)-&gt;m = min(m, z5)</title>
<path fill="none" stroke="#000000" d="M374.9518,-215.8314C382.5911,-207.3694 391.818,-197.1489 400.1703,-187.8971"/>
<polygon fill="#000000" stroke="#000000" points="402.8234,-190.1813 406.9265,-180.4133 397.6275,-185.4906 402.8234,-190.1813"/>
</g>
<!-- z5 = x5 + y5 -->
<g id="node12" class="node">
<title>z5 = x5 + y5</title>
<ellipse fill="none" stroke="#000000" cx="488.5496" cy="-234" rx="60.0273" ry="18"/>
<text text-anchor="middle" x="488.5496" y="-229.8" font-family="Times,serif" font-size="14.00" fill="#000000">z5 = x5 + y5</text>
</g>
<!-- z5 = x5 + y5&#45;&gt;m = min(m, z5) -->
<g id="edge7" class="edge">
<title>z5 = x5 + y5-&gt;m = min(m, z5)</title>
<path fill="none" stroke="#000000" d="M472.8149,-216.5708C464.9289,-207.8355 455.2293,-197.0914 446.5284,-187.4534"/>
<polygon fill="#000000" stroke="#000000" points="449.1172,-185.0979 439.8182,-180.0206 443.9213,-189.7887 449.1172,-185.0979"/>
</g>
<!-- m = min(m, z6) -->
<g id="node15" class="node">
<title>m = min(m, z6)</title>
<polygon fill="#f2f2f2" stroke="#000000" points="540.5424,-108 436.5568,-108 436.5568,-72 540.5424,-72 540.5424,-108"/>
<text text-anchor="middle" x="488.5496" y="-85.8" font-family="Times,serif" font-size="14.00" fill="#000000">m = min(m, z6)</text>
</g>
<!-- m = min(m, z5)&#45;&gt;m = min(m, z6) -->
<g id="edge15" class="edge">
<title>m = min(m, z5)-&gt;m = min(m, z6)</title>
<path fill="none" stroke="#000000" d="M439.9518,-143.8314C447.5911,-135.3694 456.818,-125.1489 465.1703,-115.8971"/>
<polygon fill="#000000" stroke="#000000" points="467.8234,-118.1813 471.9265,-108.4133 462.6275,-113.4906 467.8234,-118.1813"/>
</g>
<!-- z6 = x6 + y6 -->
<g id="node14" class="node">
<title>z6 = x6 + y6</title>
<ellipse fill="none" stroke="#000000" cx="553.5496" cy="-162" rx="60.0273" ry="18"/>
<text text-anchor="middle" x="553.5496" y="-157.8" font-family="Times,serif" font-size="14.00" fill="#000000">z6 = x6 + y6</text>
</g>
<!-- z6 = x6 + y6&#45;&gt;m = min(m, z6) -->
<g id="edge8" class="edge">
<title>z6 = x6 + y6-&gt;m = min(m, z6)</title>
<path fill="none" stroke="#000000" d="M537.8149,-144.5708C529.9289,-135.8355 520.2293,-125.0914 511.5284,-115.4534"/>
<polygon fill="#000000" stroke="#000000" points="514.1172,-113.0979 504.8182,-108.0206 508.9213,-117.7887 514.1172,-113.0979"/>
</g>
<!-- m = min(m, z7) -->
<g id="node17" class="node">
<title>m = min(m, z7)</title>
<polygon fill="#f2f2f2" stroke="#000000" points="605.5424,-36 501.5568,-36 501.5568,0 605.5424,0 605.5424,-36"/>
<text text-anchor="middle" x="553.5496" y="-13.8" font-family="Times,serif" font-size="14.00" fill="#000000">m = min(m, z7)</text>
</g>
<!-- m = min(m, z6)&#45;&gt;m = min(m, z7) -->
<g id="edge16" class="edge">
<title>m = min(m, z6)-&gt;m = min(m, z7)</title>
<path fill="none" stroke="#000000" d="M504.9518,-71.8314C512.5911,-63.3694 521.818,-53.1489 530.1703,-43.8971"/>
<polygon fill="#000000" stroke="#000000" points="532.8234,-46.1813 536.9265,-36.4133 527.6275,-41.4906 532.8234,-46.1813"/>
</g>
<!-- z7 = x7 + y7 -->
<g id="node16" class="node">
<title>z7 = x7 + y7</title>
<ellipse fill="none" stroke="#000000" cx="618.5496" cy="-90" rx="60.0273" ry="18"/>
<text text-anchor="middle" x="618.5496" y="-85.8" font-family="Times,serif" font-size="14.00" fill="#000000">z7 = x7 + y7</text>
</g>
<!-- z7 = x7 + y7&#45;&gt;m = min(m, z7) -->
<g id="edge9" class="edge">
<title>z7 = x7 + y7-&gt;m = min(m, z7)</title>
<path fill="none" stroke="#000000" d="M602.8149,-72.5708C594.9289,-63.8355 585.2293,-53.0914 576.5284,-43.4534"/>
<polygon fill="#000000" stroke="#000000" points="579.1172,-41.0979 569.8182,-36.0206 573.9213,-45.7887 579.1172,-41.0979"/>
</g>
</g>
</svg>