<?xml version="1.0" encoding="UTF-8" standalone="no"?><!DOCTYPE svg PUBLIC "-//W3C//DTD SVG 1.1//EN" "http://www.w3.org/Graphics/SVG/1.1/DTD/svg11.dtd"><!-- Generated by graphviz version 2.40.1 (20161225.0304)
 --><!-- Title: G Pages: 1 --><svg xmlns="http://www.w3.org/2000/svg" xmlns:xlink="http://www.w3.org/1999/xlink" width="538pt" height="404pt" viewBox="0.00 0.00 538.03 404.00">
<g id="graph0" class="graph" transform="scale(1 1) rotate(0) translate(4 400)">
<title>G</title>
<polygon fill="#ffffff" stroke="transparent" points="-4,4 -4,-400 534.0273,-400 534.0273,4 -4,4"/>
<!-- m0 = inf -->
<g id="node1" class="node">
<title>m0 = inf</title>
<ellipse fill="none" stroke="#000000" cx="204.0136" cy="-378" rx="44.2565" ry="18"/>
<text text-anchor="middle" x="204.0136" y="-373.8" font-family="Times,serif" font-size="14.00" fill="#000000">m0 = inf</text>
</g>
<!-- m0 = min(m0, z0) -->
<g id="node2" class="node">
<title>m0 = min(m0, z0)</title>
<polygon fill="#f2f2f2" stroke="#000000" points="256.0064,-324 138.0208,-324 138.0208,-288 256.0064,-288 256.0064,-324"/>
<text text-anchor="middle" x="197.0136" y="-301.8" font-family="Times,serif" font-size="14.00" fill="#000000">m0 = min(m0, z0)</text>
</g>
<!-- m0 = inf&#45;&gt;m0 = min(m0, z0) -->
<g id="edge1" class="edge">
<title>m0 = inf-&gt;m0 = min(m0, z0)</title>
<path fill="none" stroke="#000000" d="M202.2472,-359.8314C201.4986,-352.131 200.6084,-342.9743 199.7764,-334.4166"/>
<polygon fill="#000000" stroke="#000000" points="203.2551,-334.0276 198.8038,-324.4133 196.288,-334.7051 203.2551,-334.0276"/>
</g>
<!-- m0 = min(m0, z2) -->
<g id="node12" class="node">
<title>m0 = min(m0, z2)</title>
<polygon fill="#f2f2f2" stroke="#000000" points="256.0064,-252 138.0208,-252 138.0208,-216 256.0064,-216 256.0064,-252"/>
<text text-anchor="middle" x="197.0136" y="-229.8" font-family="Times,serif" font-size="14.00" fill="#000000">m0 = min(m0, z2)</text>
</g>
<!-- m0 = min(m0, z0)&#45;&gt;m0 = min(m0, z2) -->
<g id="edge7" class="edge">
<title>m0 = min(m0, z0)-&gt;m0 = min(m0, z2)</title>
<path fill="none" stroke="#000000" d="M197.0136,-287.8314C197.0136,-280.131 197.0136,-270.9743 197.0136,-262.4166"/>
<polygon fill="#000000" stroke="#000000" points="200.5137,-262.4132 197.0136,-252.4133 193.5137,-262.4133 200.5137,-262.4132"/>
</g>
<!-- m1 = inf -->
<g id="node3" class="node">
<title>m1 = inf</title>
<ellipse fill="none" stroke="#000000" cx="325.0136" cy="-378" rx="44.2565" ry="18"/>
<text text-anchor="middle" x="325.0136" y="-373.8" font-family="Times,serif" font-size="14.00" fill="#000000">m1 = inf</text>
</g>
<!-- m1 = min(m1, z1) -->
<g id="node4" class="node">
<title>m1 = min(m1, z1)</title>
<polygon fill="#f2f2f2" stroke="#000000" points="392.0064,-324 274.0208,-324 274.0208,-288 392.0064,-288 392.0064,-324"/>
<text text-anchor="middle" x="333.0136" y="-301.8" font-family="Times,serif" font-size="14.00" fill="#000000">m1 = min(m1, z1)</text>
</g>
<!-- m1 = inf&#45;&gt;m1 = min(m1, z1) -->
<g id="edge2" class="edge">
<title>m1 = inf-&gt;m1 = min(m1, z1)</title>
<path fill="none" stroke="#000000" d="M327.0324,-359.8314C327.888,-352.131 328.9054,-342.9743 329.8562,-334.4166"/>
<polygon fill="#000000" stroke="#000000" points="333.3419,-334.7386 330.9677,-324.4133 326.3847,-333.9656 333.3419,-334.7386"/>
</g>
<!-- m1 = min(m1, z3) -->
<g id="node7" class="node">
<title>m1 = min(m1, z3)</title>
<polygon fill="#f2f2f2" stroke="#000000" points="392.0064,-252 274.0208,-252 274.0208,-216 392.0064,-216 392.0064,-252"/>
<text text-anchor="middle" x="333.0136" y="-229.8" font-family="Times,serif" font-size="14.00" fill="#000000">m1 = min(m1, z3)</text>
</g>
<!-- m1 = min(m1, z1)&#45;&gt;m1 = min(m1, z3) -->
<g id="edge15" class="edge">
<title>m1 = min(m1, z1)-&gt;m1 = min(m1, z3)</title>
<path fill="none" stroke="#000000" d="M333.0136,-287.8314C333.0136,-280.131 333.0136,-270.9743 333.0136,-262.4166"/>
<polygon fill="#000000" stroke="#000000" points="336.5137,-262.4132 333.0136,-252.4133 329.5137,-262.4133 336.5137,-262.4132"/>
</g>
<!-- z1 = x1 + y1 -->
<g id="node5" class="node">
<title>z1 = x1 + y1</title>
<ellipse fill="none" stroke="#000000" cx="447.0136" cy="-378" rx="60.0273" ry="18"/>
<text text-anchor="middle" x="447.0136" y="-373.8" font-family="Times,serif" font-size="14.00" fill="#000000">z1 = x1 + y1</text>
</g>
<!-- z1 = x1 + y1&#45;&gt;m1 = min(m1, z1) -->
<g id="edge3" class="edge">
<title>z1 = x1 + y1-&gt;m1 = min(m1, z1)</title>
<path fill="none" stroke="#000000" d="M421.1453,-361.6621C406.041,-352.1226 386.7297,-339.926 370.0358,-329.3824"/>
<polygon fill="#000000" stroke="#000000" points="371.9046,-326.4231 361.5807,-324.0423 368.1666,-332.3415 371.9046,-326.4231"/>
</g>
<!-- z3 = x3 + y3 -->
<g id="node6" class="node">
<title>z3 = x3 + y3</title>
<ellipse fill="none" stroke="#000000" cx="470.0136" cy="-306" rx="60.0273" ry="18"/>
<text text-anchor="middle" x="470.0136" y="-301.8" font-family="Times,serif" font-size="14.00" fill="#000000">z3 = x3 + y3</text>
</g>
<!-- z3 = x3 + y3&#45;&gt;m1 = min(m1, z3) -->
<g id="edge4" class="edge">
<title>z3 = x3 + y3-&gt;m1 = min(m1, z3)</title>
<path fill="none" stroke="#000000" d="M439.9484,-290.1993C421.2858,-280.3912 396.9955,-267.6255 376.2829,-256.7401"/>
<polygon fill="#000000" stroke="#000000" points="377.8327,-253.6007 367.3525,-252.0467 374.5762,-259.7971 377.8327,-253.6007"/>
</g>
<!-- m1 = min(m1, z5) -->
<g id="node9" class="node">
<title>m1 = min(m1, z5)</title>
<polygon fill="#f2f2f2" stroke="#000000" points="392.0064,-180 274.0208,-180 274.0208,-144 392.0064,-144 392.0064,-180"/>
<text text-anchor="middle" x="333.0136" y="-157.8" font-family="Times,serif" font-size="14.00" fill="#000000">m1 = min(m1, z5)</text>
</g>
<!-- m1 = min(m1, z3)&#45;&gt;m1 = min(m1, z5) -->
<g id="edge16" class="edge">
<title>m1 = min(m1, z3)-&gt;m1 = min(m1, z5)</title>
<path fill="none" stroke="#000000" d="M333.0136,-215.8314C333.0136,-208.131 333.0136,-198.9743 333.0136,-190.4166"/>
<polygon fill="#000000" stroke="#000000" points="336.5137,-190.4132 333.0136,-180.4133 329.5137,-190.4133 336.5137,-190.4132"/>
</g>
<!-- z5 = x5 + y5 -->
<g id="node8" class="node">
<title>z5 = x5 + y5</title>
<ellipse fill="none" stroke="#000000" cx="470.0136" cy="-234" rx="60.0273" ry="18"/>
<text text-anchor="middle" x="470.0136" y="-229.8" font-family="Times,serif" font-size="14.00" fill="#000000">z5 = x5 + y5</text>
</g>
<!-- z5 = x5 + y5&#45;&gt;m1 = min(m1, z5) -->
<g id="edge5" class="edge">
<title>z5 = x5 + y5-&gt;m1 = min(m1, z5)</title>
<path fill="none" stroke="#000000" d="M439.9484,-218.1993C421.2858,-208.3912 396.9955,-195.6255 376.2829,-184.7401"/>
<polygon fill="#000000" stroke="#000000" points="377.8327,-181.6007 367.3525,-180.0467 374.5762,-187.7971 377.8327,-181.6007"/>
</g>
<!-- m1 = min(m1, z7) -->
<g id="node11" class="node">
<title>m1 = min(m1, z7)</title>
<polygon fill="#f2f2f2" stroke="#000000" points="392.0064,-108 274.0208,-108 274.0208,-72 392.0064,-72 392.0064,-108"/>
<text text-anchor="middle" x="333.0136" y="-85.8" font-family="Times,serif" font-size="14.00" fill="#000000">m1 = min(m1, z7)</text>
</g>
<!-- m1 = min(m1, z5)&#45;&gt;m1 = min(m1, z7) -->
<g id="edge17" class="edge">
<title>m1 = min(m1, z5)-&gt;m1 = min(m1, z7)</title>
<path fill="none" stroke="#000000" d="M333.0136,-143.8314C333.0136,-136.131 333.0136,-126.9743 333.0136,-118.4166"/>
<polygon fill="#000000" stroke="#000000" points="336.5137,-118.4132 333.0136,-108.4133 329.5137,-118.4133 336.5137,-118.4132"/>
</g>
<!-- z7 = x7 + y7 -->
<g id="node10" class="node">
<title>z7 = x7 + y7</title>
<ellipse fill="none" stroke="#000000" cx="470.0136" cy="-162" rx="60.0273" ry="18"/>
<text text-anchor="middle" x="470.0136" y="-157.8" font-family="Times,serif" font-size="14.00" fill="#000000">z7 = x7 + y7</text>
</g>
<!-- z7 = x7 + y7&#45;&gt;m1 = min(m1, z7) -->
<g id="edge6" class="edge">
<title>z7 = x7 + y7-&gt;m1 = min(m1, z7)</title>
<path fill="none" stroke="#000000" d="M439.9484,-146.1993C421.2858,-136.3912 396.9955,-123.6255 376.2829,-112.7401"/>
<polygon fill="#000000" stroke="#000000" points="377.8327,-109.6007 367.3525,-108.0467 374.5762,-115.7971 377.8327,-109.6007"/>
</g>
<!-- m = min(m0, m1) -->
<g id="node15" class="node">
<title>m = min(m0, m1)</title>
<polygon fill="#f2f2f2" stroke="#000000" points="322.6829,-36 207.3444,-36 207.3444,0 322.6829,0 322.6829,-36"/>
<text text-anchor="middle" x="265.0136" y="-13.8" font-family="Times,serif" font-size="14.00" fill="#000000">m = min(m0, m1)</text>
</g>
<!-- m1 = min(m1, z7)&#45;&gt;m = min(m0, m1) -->
<g id="edge18" class="edge">
<title>m1 = min(m1, z7)-&gt;m = min(m0, m1)</title>
<path fill="none" stroke="#000000" d="M315.8544,-71.8314C307.8625,-63.3694 298.2098,-53.1489 289.472,-43.8971"/>
<polygon fill="#000000" stroke="#000000" points="291.8148,-41.2802 282.4039,-36.4133 286.7257,-46.0866 291.8148,-41.2802"/>
</g>
<!-- m0 = min(m0, z4) -->
<g id="node13" class="node">
<title>m0 = min(m0, z4)</title>
<polygon fill="#f2f2f2" stroke="#000000" points="256.0064,-180 138.0208,-180 138.0208,-144 256.0064,-144 256.0064,-180"/>
<text text-anchor="middle" x="197.0136" y="-157.8" font-family="Times,serif" font-size="14.00" fill="#000000">m0 = min(m0, z4)</text>
</g>
<!-- m0 = min(m0, z2)&#45;&gt;m0 = min(m0, z4) -->
<g id="edge8" class="edge">
<title>m0 = min(m0, z2)-&gt;m0 = min(m0, z4)</title>
<path fill="none" stroke="#000000" d="M197.0136,-215.8314C197.0136,-208.131 197.0136,-198.9743 197.0136,-190.4166"/>
<polygon fill="#000000" stroke="#000000" points="200.5137,-190.4132 197.0136,-180.4133 193.5137,-190.4133 200.5137,-190.4132"/>
</g>
<!-- m0 = min(m0, z6) -->
<g id="node14" class="node">
<title>m0 = min(m0, z6)</title>
<polygon fill="#f2f2f2" stroke="#000000" points="256.0064,-108 138.0208,-108 138.0208,-72 256.0064,-72 256.0064,-108"/>
<text text-anchor="middle" x="197.0136" y="-85.8" font-family="Times,serif" font-size="14.00" fill="#000000">m0 = min(m0, z6)</text>
</g>
<!-- m0 = min(m0, z4)&#45;&gt;m0 = min(m0, z6) -->
<g id="edge9" class="edge">
<title>m0 = min(m0, z4)-&gt;m0 = min(m0, z6)</title>
<path fill="none" stroke="#000000" d="M197.0136,-143.8314C197.0136,-136.131 197.0136,-126.9743 197.0136,-118.4166"/>
<polygon fill="#000000" stroke="#000000" points="200.5137,-118.4132 197.0136,-108.4133 193.5137,-118.4133 200.5137,-118.4132"/>
</g>
<!-- m0 = min(m0, z6)&#45;&gt;m = min(m0, m1) -->
<g id="edge10" class="edge">
<title>m0 = min(m0, z6)-&gt;m = min(m0, m1)</title>
<path fill="none" stroke="#000000" d="M214.1729,-71.8314C222.1648,-63.3694 231.8174,-53.1489 240.5553,-43.8971"/>
<polygon fill="#000000" stroke="#000000" points="243.3016,-46.0866 247.6233,-36.4133 238.2125,-41.2802 243.3016,-46.0866"/>
</g>
<!-- z0 = x0 + y0 -->
<g id="node16" class="node">
<title>z0 = x0 + y0</title>
<ellipse fill="none" stroke="#000000" cx="82.0136" cy="-378" rx="60.0273" ry="18"/>
<text text-anchor="middle" x="82.0136" y="-373.8" font-family="Times,serif" font-size="14.00" fill="#000000">z0 = x0 + y0</text>
</g>
<!-- z0 = x0 + y0&#45;&gt;m0 = inf -->
<!-- z0 = x0 + y0&#45;&gt;m0 = min(m0, z0) -->
<g id="edge11" class="edge">
<title>z0 = x0 + y0-&gt;m0 = min(m0, z0)</title>
<path fill="none" stroke="#000000" d="M108.1089,-361.6621C123.3456,-352.1226 142.8263,-339.926 159.6667,-329.3824"/>
<polygon fill="#000000" stroke="#000000" points="161.5775,-332.3155 168.196,-324.0423 157.8628,-326.3825 161.5775,-332.3155"/>
</g>
<!-- z2 = x2 + y2 -->
<g id="node17" class="node">
<title>z2 = x2 + y2</title>
<ellipse fill="none" stroke="#000000" cx="60.0136" cy="-306" rx="60.0273" ry="18"/>
<text text-anchor="middle" x="60.0136" y="-301.8" font-family="Times,serif" font-size="14.00" fill="#000000">z2 = x2 + y2</text>
</g>
<!-- z2 = x2 + y2&#45;&gt;m0 = min(m0, z0) -->
<!-- z2 = x2 + y2&#45;&gt;m0 = min(m0, z2) -->
<g id="edge12" class="edge">
<title>z2 = x2 + y2-&gt;m0 = min(m0, z2)</title>
<path fill="none" stroke="#000000" d="M90.0789,-290.1993C108.7415,-280.3912 133.0317,-267.6255 153.7444,-256.7401"/>
<polygon fill="#000000" stroke="#000000" points="155.4511,-259.7971 162.6748,-252.0467 152.1945,-253.6007 155.4511,-259.7971"/>
</g>
<!-- z4 = x4 + y4 -->
<g id="node18" class="node">
<title>z4 = x4 + y4</title>
<ellipse fill="none" stroke="#000000" cx="60.0136" cy="-234" rx="60.0273" ry="18"/>
<text text-anchor="middle" x="60.0136" y="-229.8" font-family="Times,serif" font-size="14.00" fill="#000000">z4 = x4 + y4</text>
</g>
<!-- z4 = x4 + y4&#45;&gt;m0 = min(m0, z2) -->
<!-- z4 = x4 + y4&#45;&gt;m0 = min(m0, z4) -->
<g id="edge13" class="edge">
<title>z4 = x4 + y4-&gt;m0 = min(m0, z4)</title>
<path fill="none" stroke="#000000" d="M90.0789,-218.1993C108.7415,-208.3912 133.0317,-195.6255 153.7444,-184.7401"/>
<polygon fill="#000000" stroke="#000000" points="155.4511,-187.7971 162.6748,-180.0467 152.1945,-181.6007 155.4511,-187.7971"/>
</g>
<!-- z6 = x6 + y6 -->
<g id="node19" class="node">
<title>z6 = x6 + y6</title>
<ellipse fill="none" stroke="#000000" cx="60.0136" cy="-162" rx="60.0273" ry="18"/>
<text text-anchor="middle" x="60.0136" y="-157.8" font-family="Times,serif" font-size="14.00" fill="#000000">z6 = x6 + y6</text>
</g>
<!-- z6 = x6 + y6&#45;&gt;m0 = min(m0, z4) -->
<!-- z6 = x6 + y6&#45;&gt;m0 = min(m0, z6) -->
<g id="edge14" class="edge">
<title>z6 = x6 + y6-&gt;m0 = min(m0, z6)</title>
<path fill="none" stroke="#000000" d="M90.0789,-146.1993C108.7415,-136.3912 133.0317,-123.6255 153.7444,-112.7401"/>
<polygon fill="#000000" stroke="#000000" points="155.4511,-115.7971 162.6748,-108.0467 152.1945,-109.6007 155.4511,-115.7971"/>
</g>
</g>
</svg>