<?xml version="1.0" encoding="UTF-8" standalone="no"?><!DOCTYPE svg PUBLIC "-//W3C//DTD SVG 1.1//EN" "http://www.w3.org/Graphics/SVG/1.1/DTD/svg11.dtd"><!-- Generated by graphviz version 2.40.1 (20161225.0304)
 --><!-- Title: G Pages: 1 --><svg xmlns="http://www.w3.org/2000/svg" xmlns:xlink="http://www.w3.org/1999/xlink" width="342pt" height="235pt" viewBox="0.00 0.00 342.39 234.72">
<g id="graph0" class="graph" transform="scale(1 1) rotate(0) translate(4 230.7203)">
<title>G</title>
<polygon fill="#ffffff" stroke="transparent" points="-4,4 -4,-230.7203 338.3858,-230.7203 338.3858,4 -4,4"/>
<!-- a -->
<g id="node1" class="node">
<title>a</title>
<ellipse fill="none" stroke="#000000" cx="208.3858" cy="-113.3602" rx="27" ry="18"/>
<text text-anchor="middle" x="208.3858" y="-109.1602" font-family="Times,serif" font-size="14.00" fill="#000000">a</text>
</g>
<!-- b -->
<g id="node2" class="node">
<title>b</title>
<ellipse fill="none" stroke="#000000" cx="307.3858" cy="-113.3602" rx="27" ry="18"/>
<text text-anchor="middle" x="307.3858" y="-109.1602" font-family="Times,serif" font-size="14.00" fill="#000000">b</text>
</g>
<!-- a&#45;&gt;b -->
<g id="edge1" class="edge">
<title>a-&gt;b</title>
<path fill="none" stroke="#000000" d="M233.8808,-119.3484C245.339,-120.1373 259.0614,-120.3134 271.5308,-119.8769"/>
<polygon fill="#000000" stroke="#000000" points="271.8227,-123.3667 281.6332,-119.366 271.4691,-116.3756 271.8227,-123.3667"/>
<text text-anchor="middle" x="249.2058" y="-123.8126" font-family="Times,serif" font-size="14.00" fill="#000000">1</text>
</g>
<!-- c -->
<g id="node3" class="node">
<title>c</title>
<ellipse fill="none" stroke="#000000" cx="27" cy="-54.4243" rx="27" ry="18"/>
<text text-anchor="middle" x="27" y="-50.2243" font-family="Times,serif" font-size="14.00" fill="#000000">c</text>
</g>
<!-- a&#45;&gt;c -->
<g id="edge6" class="edge">
<title>a-&gt;c</title>
<path fill="none" stroke="#000000" d="M183.9233,-105.4118C152.1913,-95.1014 96.6746,-77.063 60.8958,-65.4378"/>
<polygon fill="#000000" stroke="#000000" points="61.9561,-62.1022 51.3639,-62.3407 59.7929,-68.7596 61.9561,-62.1022"/>
<text text-anchor="middle" x="118.9096" y="-89.6248" font-family="Times,serif" font-size="14.00" fill="#000000">1</text>
</g>
<!-- b&#45;&gt;a -->
<g id="edge2" class="edge">
<title>b-&gt;a</title>
<path fill="none" stroke="#000000" d="M281.8909,-107.3719C270.4327,-106.583 256.7102,-106.4069 244.2408,-106.8435"/>
<polygon fill="#000000" stroke="#000000" points="243.9489,-103.3537 234.1385,-107.3543 244.3025,-110.3447 243.9489,-103.3537"/>
<text text-anchor="middle" x="259.5658" y="-111.3077" font-family="Times,serif" font-size="14.00" fill="#000000">2</text>
</g>
<!-- d -->
<g id="node4" class="node">
<title>d</title>
<ellipse fill="none" stroke="#000000" cx="139.1026" cy="-18" rx="27" ry="18"/>
<text text-anchor="middle" x="139.1026" y="-13.8" font-family="Times,serif" font-size="14.00" fill="#000000">d</text>
</g>
<!-- c&#45;&gt;d -->
<g id="edge3" class="edge">
<title>c-&gt;d</title>
<path fill="none" stroke="#0000ff" d="M53.9319,-51.7096C70.7068,-47.5185 92.2866,-40.6455 109.5333,-34.0596"/>
<polygon fill="#0000ff" stroke="#0000ff" points="111.1258,-37.1926 119.1181,-30.2375 108.533,-30.6905 111.1258,-37.1926"/>
<text text-anchor="middle" x="78.2326" y="-47.0846" font-family="Times,serif" font-size="14.00" fill="#000000">1</text>
</g>
<!-- e -->
<g id="node5" class="node">
<title>e</title>
<ellipse fill="none" stroke="#000000" cx="27" cy="-172.296" rx="27" ry="18"/>
<text text-anchor="middle" x="27" y="-168.096" font-family="Times,serif" font-size="14.00" fill="#000000">e</text>
</g>
<!-- c&#45;&gt;e -->
<g id="edge8" class="edge">
<title>c-&gt;e</title>
<path fill="none" stroke="#000000" d="M21.9906,-72.3265C20.0012,-91.3656 19.7171,-121.7467 21.1384,-144.0249"/>
<polygon fill="#000000" stroke="#000000" points="17.6691,-144.5442 21.9731,-154.2254 24.6458,-143.9732 17.6691,-144.5442"/>
<text text-anchor="middle" x="18.0645" y="-112.3757" font-family="Times,serif" font-size="14.00" fill="#000000">1</text>
</g>
<!-- d&#45;&gt;a -->
<g id="edge10" class="edge">
<title>d-&gt;a</title>
<path fill="none" stroke="#000000" d="M151.1708,-34.6105C161.9997,-49.5151 178.0411,-71.5942 190.385,-88.5842"/>
<polygon fill="#000000" stroke="#000000" points="187.7464,-90.9071 196.4559,-96.94 193.4096,-86.7926 187.7464,-90.9071"/>
<text text-anchor="middle" x="167.2779" y="-65.7973" font-family="Times,serif" font-size="14.00" fill="#000000">1</text>
</g>
<!-- d&#45;&gt;c -->
<g id="edge4" class="edge">
<title>d-&gt;c</title>
<path fill="none" stroke="#000000" d="M112.1707,-20.7148C95.3958,-24.9058 73.816,-31.7789 56.5693,-38.3648"/>
<polygon fill="#000000" stroke="#000000" points="54.9768,-35.2317 46.9845,-42.1868 57.5696,-41.7338 54.9768,-35.2317"/>
<text text-anchor="middle" x="80.87" y="-16.9398" font-family="Times,serif" font-size="14.00" fill="#000000">3</text>
</g>
<!-- e&#45;&gt;c -->
<g id="edge9" class="edge">
<title>e-&gt;c</title>
<path fill="none" stroke="#0000ff" d="M32.0094,-154.3938C33.9988,-135.3548 34.2829,-104.9737 32.8616,-82.6955"/>
<polygon fill="#0000ff" stroke="#0000ff" points="36.3309,-82.1762 32.0269,-72.495 29.3542,-82.7472 36.3309,-82.1762"/>
<text text-anchor="middle" x="28.9355" y="-122.7446" font-family="Times,serif" font-size="14.00" fill="#000000">8</text>
</g>
<!-- f -->
<g id="node6" class="node">
<title>f</title>
<ellipse fill="none" stroke="#000000" cx="139.1026" cy="-208.7203" rx="27" ry="18"/>
<text text-anchor="middle" x="139.1026" y="-204.5203" font-family="Times,serif" font-size="14.00" fill="#000000">f</text>
</g>
<!-- e&#45;&gt;f -->
<g id="edge5" class="edge">
<title>e-&gt;f</title>
<path fill="none" stroke="#000000" d="M51.3246,-180.1995C67.043,-185.3068 87.7248,-192.0267 105.0649,-197.6608"/>
<polygon fill="#000000" stroke="#000000" points="104.2333,-201.0707 114.8255,-200.8322 106.3965,-194.4133 104.2333,-201.0707"/>
<text text-anchor="middle" x="74.6947" y="-193.1302" font-family="Times,serif" font-size="14.00" fill="#000000">2</text>
</g>
<!-- f&#45;&gt;d -->
<g id="edge7" class="edge">
<title>f-&gt;d</title>
<path fill="none" stroke="#000000" d="M139.1026,-190.4333C139.1026,-157.0404 139.1026,-85.9864 139.1026,-46.3026"/>
<polygon fill="#000000" stroke="#000000" points="142.6027,-46.2317 139.1026,-36.2317 135.6027,-46.2317 142.6027,-46.2317"/>
<text text-anchor="middle" x="135.6026" y="-122.5679" font-family="Times,serif" font-size="14.00" fill="#000000">4</text>
</g>
</g>
</svg>